<!-- icon666.com - MILLIONS vector ICONS FREE --><svg viewBox="-40 1 511 511.99974" xmlns="http://www.w3.org/2000/svg"><path d="m410.652344 17.851562-43.660156 17.414063c-31.523438 12.574219-66.535157 10.195313-96.066407-6.527344l-47.226562-26.742187c-4.703125-2.660156-10.457031-2.660156-15.160157 0l-47.226562 26.742187c-29.53125 16.722657-64.542969 19.101563-96.066406 6.527344l-43.660156-17.414063c-10.085938-4.023437-21.085938 3.414063-21.085938 14.289063v264.242187c0 118.441407 96.039062 215.617188 215.617188 215.617188 119.554687 0 215.621093-97.152344 215.621093-215.617188v-264.242187c0-10.859375-10.984375-18.320313-21.085937-14.289063zm-9.683594 278.53125c0 100.460938-80.96875 184.660157-184.847656 184.660157-103.707032 0-184.847656-84-184.847656-184.660157v-241.539062l22.574218 9.003906c40.238282 16.050782 84.933594 13.011719 122.628906-8.332031l39.644532-22.449219 39.644531 22.449219c37.695313 21.34375 82.390625 24.382813 122.628906 8.332031l22.574219-9.003906zm0 0"></path><path d="m358.222656 215.445312h-27.996094c-1.402343-3.949218-3.007812-7.824218-4.8125-11.609374l19.796876-19.796876c6.011718-6.007812 6.011718-15.75 0-21.757812l-35.460938-35.464844c-6.007812-6.003906-15.753906-6.007812-21.761719 0l-19.796875 19.796875c-3.785156-1.804687-7.660156-3.410156-11.609375-4.808593v-27.996094c0-8.5-6.890625-15.386719-15.386719-15.386719h-50.152343c-8.496094 0-15.386719 6.886719-15.386719 15.386719v27.996094c-3.953125 1.398437-7.824219 3.003906-11.609375 4.808593l-19.796875-19.796875c-6.007812-6.007812-15.75-6.007812-21.761719 0l-35.460937 35.464844c-6.007813 6.007812-6.007813 15.75 0 21.757812l19.796875 19.796876c-1.804688 3.785156-3.410157 7.660156-4.8125 11.609374h-27.996094c-8.496094 0-15.386719 6.890626-15.386719 15.386719v50.15625c0 8.496094 6.890625 15.382813 15.386719 15.382813h27.996094c1.402343 3.953125 3.007812 7.828125 4.8125 11.609375l-19.800781 19.800781c-6.007813 6.007812-6.007813 15.75 0 21.757812l35.464843 35.464844c6.007813 6.007813 15.75 6.007813 21.757813 0l19.800781-19.796875c3.78125 1.804688 7.65625 3.410157 11.609375 4.808594v27.996094c0 8.5 6.886719 15.386719 15.386719 15.386719h50.152343c8.496094 0 15.386719-6.886719 15.386719-15.386719v-27.996094c3.949219-1.402344 7.824219-3.003906 11.609375-4.808594l19.796875 19.796875c6.007813 6.007813 15.75 6.007813 21.757813 0l35.464844-35.464844c6.007812-6.007812 6.007812-15.75 0-21.757812l-19.796876-19.800781c1.804688-3.78125 3.410157-7.65625 4.808594-11.609375h28c8.496094 0 15.382813-6.886719 15.382813-15.382813v-50.15625c.003906-8.496093-6.886719-15.386719-15.382813-15.386719zm-15.386718 50.15625h-24.058594c-7.097656 0-13.273438 4.851563-14.953125 11.746094-2.183594 8.976563-5.726563 17.527344-10.527344 25.417969-3.691406 6.0625-2.753906 13.859375 2.261719 18.878906l17.015625 17.015625-13.703125 13.703125-17.015625-17.011719c-5.019531-5.019531-12.820313-5.953124-18.878907-2.265624-7.890624 4.800781-16.441406 8.34375-25.417968 10.53125-6.894532 1.675781-11.75 7.851562-11.75 14.949218v24.058594h-19.378906v-24.058594c0-7.097656-4.851563-13.273437-11.75-14.949218-8.976563-2.1875-17.527344-5.730469-25.417969-10.53125-6.058594-3.691407-13.859375-2.753907-18.878907 2.265624l-17.015624 17.011719-13.703126-13.703125 17.015626-17.015625c5.015624-5.019531 5.953124-12.816406 2.261718-18.878906-4.800781-7.890625-8.34375-16.441406-10.527344-25.417969-1.679687-6.894531-7.855468-11.746094-14.953124-11.746094h-24.058594v-19.382812h24.058594c7.097656 0 13.273437-4.851562 14.949218-11.746094 2.1875-8.976562 5.730469-17.527344 10.53125-25.417968 3.691406-6.0625 2.753906-13.863282-2.261718-18.878907l-17.015626-17.015625 13.703126-13.707031 17.015624 17.015625c5.019532 5.019531 12.816407 5.953125 18.878907 2.265625 7.890625-4.804687 16.441406-8.34375 25.417969-10.53125 6.894531-1.679687 11.746093-7.855469 11.746093-14.949219v-24.0625h19.382813v24.0625c0 7.09375 4.851562 13.269532 11.746094 14.949219 8.976562 2.1875 17.53125 5.726563 25.417968 10.53125 6.0625 3.6875 13.863282 2.753906 18.882813-2.265625l17.011719-17.015625 13.707031 13.707031-17.015625 17.015625c-5.019532 5.015625-5.953125 12.816407-2.265625 18.878907 4.804687 7.890624 8.347656 16.441406 10.53125 25.417968 1.679687 6.894532 7.851562 11.746094 14.949219 11.746094h24.0625zm0 0"></path><path d="m216.121094 187.359375c-37.800782 0-68.550782 30.753906-68.550782 68.550781s30.75 68.546875 68.550782 68.546875c37.796875 0 68.546875-30.75 68.546875-68.546875s-30.75-68.550781-68.546875-68.550781zm0 106.328125c-20.832032 0-37.777344-16.949219-37.777344-37.777344 0-20.832031 16.945312-37.777344 37.777344-37.777344 20.828125 0 37.777344 16.945313 37.777344 37.777344 0 20.828125-16.949219 37.777344-37.777344 37.777344zm0 0"></path></svg>